<svg width="36" height="47" viewBox="0 0 36 47"  xmlns="http://www.w3.org/2000/svg">
<path d="M24.2659 17.2355C24.2659 20.8603 21.3164 23.811 17.6903 23.811C14.0642 23.811 11.1147 20.8603 11.1147 17.2355C11.1147 13.6094 14.0642 10.6587 17.6903 10.6587C21.3164 10.6587 24.2659 13.6094 24.2659 17.2355Z" fill="#5f6ac0"/>
<path d="M31.8127 6.84371C28.4537 2.55923 23.1791 0 17.69 0C12.2008 0 6.92626 2.55923 3.56721 6.84371C-0.221082 11.6756 -0.898966 17.4989 1.09213 23.1892C3.00639 28.6601 7.07138 33.2214 10.3951 37.9228C11.9728 40.1553 14.6686 43.9679 16.3036 46.2822C16.9804 47.2393 18.3996 47.2393 19.0762 46.2822C20.7112 43.968 23.407 40.1553 24.9847 37.9228C28.3084 33.2213 32.3735 28.66 34.2877 23.1892C36.2789 17.4989 35.601 11.6757 31.8127 6.84371ZM17.69 27.4688C12.0472 27.4688 7.45659 22.8783 7.45659 17.2356C7.45659 11.5929 12.0472 7.00101 17.69 7.00101C23.3328 7.00101 27.9233 11.5928 27.9233 17.2356C27.9233 22.8784 23.3328 27.4688 17.69 27.4688Z" fill="#5f6ac0"/>
</svg>
