<svg width="218" height="43" viewBox="0 0 218 43" fill="none" xmlns="http://www.w3.org/2000/svg">
<path d="M70.776 28.264C68.0627 28.264 65.892 27.4867 64.264 25.932L66.266 23.094C67.5567 24.3847 69.1187 25.03 70.952 25.03C71.5973 25.03 72.1033 24.92 72.47 24.7C72.8513 24.4653 73.042 24.172 73.042 23.82C73.042 23.512 72.8367 23.2627 72.426 23.072C72.0153 22.8667 71.502 22.72 70.886 22.632C70.27 22.5293 69.6027 22.3753 68.884 22.17C68.1653 21.95 67.498 21.7007 66.882 21.422C66.266 21.1287 65.7527 20.6667 65.342 20.036C64.9313 19.4053 64.726 18.65 64.726 17.77C64.726 16.4793 65.2467 15.3793 66.288 14.47C67.344 13.5607 68.774 13.106 70.578 13.106C72.9687 13.106 74.956 13.788 76.54 15.152L74.472 17.858C73.24 16.846 71.81 16.34 70.182 16.34C69.126 16.34 68.598 16.692 68.598 17.396C68.598 17.6747 68.8033 17.9167 69.214 18.122C69.6247 18.3127 70.138 18.4593 70.754 18.562C71.37 18.6647 72.03 18.826 72.734 19.046C73.4527 19.2513 74.12 19.5007 74.736 19.794C75.352 20.0873 75.8653 20.542 76.276 21.158C76.6867 21.774 76.892 22.5073 76.892 23.358C76.892 24.854 76.3567 26.0493 75.286 26.944C74.2153 27.824 72.712 28.264 70.776 28.264ZM92.3238 28H88.5398V22.104H82.4458V28H78.6618V13.326H82.4458V18.804H88.5398V13.326H92.3238V28ZM109.224 28H104.934L104.208 25.888H98.4224L97.6964 28H93.4064L98.9284 13.326H103.68L109.224 28ZM103.174 22.588L101.304 17.066L99.4344 22.588H103.174ZM114.092 28H110.308V13.326H121.066V16.626H114.092V18.914H120.912V22.214H114.092V28ZM126.897 28H123.113V13.326H133.871V16.626H126.897V18.914H133.717V22.214H126.897V28ZM148.634 26.13C147.152 27.5527 145.282 28.264 143.024 28.264C140.765 28.264 138.888 27.5527 137.392 26.13C135.91 24.7073 135.17 22.8887 135.17 20.674C135.17 18.4593 135.91 16.6407 137.392 15.218C138.888 13.7953 140.765 13.084 143.024 13.084C145.282 13.084 147.152 13.7953 148.634 15.218C150.115 16.6407 150.856 18.4593 150.856 20.674C150.856 22.8887 150.115 24.7073 148.634 26.13ZM143.024 24.92C144.212 24.92 145.172 24.5167 145.906 23.71C146.639 22.9033 147.006 21.8913 147.006 20.674C147.006 19.4567 146.639 18.4447 145.906 17.638C145.172 16.8313 144.212 16.428 143.024 16.428C141.821 16.428 140.853 16.8313 140.12 17.638C139.386 18.4447 139.02 19.4567 139.02 20.674C139.02 21.8913 139.386 22.9033 140.12 23.71C140.853 24.5167 141.821 24.92 143.024 24.92ZM156.545 28H152.761V13.326H163.519V16.626H156.545V18.914H163.365V22.214H156.545V28ZM178.983 28H175.199V22.082L169.633 13.326H173.901L177.091 18.738L180.237 13.326H184.527L178.983 22.082V28ZM197.446 26.13C195.965 27.5527 194.095 28.264 191.836 28.264C189.577 28.264 187.7 27.5527 186.204 26.13C184.723 24.7073 183.982 22.8887 183.982 20.674C183.982 18.4593 184.723 16.6407 186.204 15.218C187.7 13.7953 189.577 13.084 191.836 13.084C194.095 13.084 195.965 13.7953 197.446 15.218C198.927 16.6407 199.668 18.4593 199.668 20.674C199.668 22.8887 198.927 24.7073 197.446 26.13ZM191.836 24.92C193.024 24.92 193.985 24.5167 194.718 23.71C195.451 22.9033 195.818 21.8913 195.818 20.674C195.818 19.4567 195.451 18.4447 194.718 17.638C193.985 16.8313 193.024 16.428 191.836 16.428C190.633 16.428 189.665 16.8313 188.932 17.638C188.199 18.4447 187.832 19.4567 187.832 20.674C187.832 21.8913 188.199 22.9033 188.932 23.71C189.665 24.5167 190.633 24.92 191.836 24.92ZM205.187 15.658C205.187 17.4473 204.351 18.936 202.679 20.124L201.271 18.98C201.638 18.7893 202.012 18.4887 202.393 18.078C202.774 17.6673 203.024 17.264 203.141 16.868C202.994 16.9267 202.826 16.956 202.635 16.956C202.151 16.956 201.74 16.7873 201.403 16.45C201.08 16.1127 200.919 15.6727 200.919 15.13C200.919 14.5727 201.117 14.096 201.513 13.7C201.909 13.304 202.386 13.106 202.943 13.106C203.574 13.106 204.102 13.3407 204.527 13.81C204.967 14.2647 205.187 14.8807 205.187 15.658ZM216.926 28H207.246V13.326H211.03V24.7H216.926V28Z" fill="#353535"/>
<path d="M20.8267 32.3824C23.4249 33.5382 25.1529 34.3069 24.8723 35.8504C24.3758 38.581 12.114 41.2218 4.7885 42.4731C1.9618 41.1691 0 38.31 0 34.9927V8.23357C0 3.68629 3.6863 0 8.23358 0H38.7664C40.2458 0 41.634 0.390154 42.8338 1.07318C28.1765 4.15024 2.33288 12.4833 7.54744 21.4416C11.5011 28.2338 17.0724 30.7122 20.8267 32.3824Z" fill="#6BD398"/>
<path d="M23.6715 42.0255C35.5073 36.5365 31.3905 33.2774 21.2701 29.5036C33.1058 32.5912 36.5365 37.9088 23.6715 42.0255Z" fill="#6BD398"/>
<path d="M23.8651 23.7092C14.5801 19.5547 15.9524 15.9526 23.8652 11.6642C14.1603 15.5034 13.7448 21.053 23.8651 23.7092Z" fill="#6BD398"/>
<path d="M45.0771 2.94531C44.0483 3.37358 42.9509 3.82223 41.8114 4.28815C28.3942 9.77398 9.12427 17.6528 26.9303 22.8139C27.9883 23.1206 29.0409 23.4166 30.0789 23.7085C37.7143 25.8559 44.5635 27.7821 46.9997 32.0973V8.23364C46.9997 6.22036 46.2771 4.37585 45.0771 2.94531Z" fill="#323232"/>
</svg>
