<svg width="214" height="43" viewBox="0 0 214 43" fill="none" xmlns="http://www.w3.org/2000/svg">
<path d="M66.776 28.264C64.0627 28.264 61.892 27.4867 60.264 25.932L62.266 23.094C63.5567 24.3847 65.1187 25.03 66.952 25.03C67.5973 25.03 68.1033 24.92 68.47 24.7C68.8513 24.4653 69.042 24.172 69.042 23.82C69.042 23.512 68.8367 23.2627 68.426 23.072C68.0153 22.8667 67.502 22.72 66.886 22.632C66.27 22.5293 65.6027 22.3753 64.884 22.17C64.1653 21.95 63.498 21.7007 62.882 21.422C62.266 21.1287 61.7527 20.6667 61.342 20.036C60.9313 19.4053 60.726 18.65 60.726 17.77C60.726 16.4793 61.2467 15.3793 62.288 14.47C63.344 13.5607 64.774 13.106 66.578 13.106C68.9687 13.106 70.956 13.788 72.54 15.152L70.472 17.858C69.24 16.846 67.81 16.34 66.182 16.34C65.126 16.34 64.598 16.692 64.598 17.396C64.598 17.6747 64.8033 17.9167 65.214 18.122C65.6247 18.3127 66.138 18.4593 66.754 18.562C67.37 18.6647 68.03 18.826 68.734 19.046C69.4527 19.2513 70.12 19.5007 70.736 19.794C71.352 20.0873 71.8653 20.542 72.276 21.158C72.6867 21.774 72.892 22.5073 72.892 23.358C72.892 24.854 72.3567 26.0493 71.286 26.944C70.2153 27.824 68.712 28.264 66.776 28.264ZM88.3238 28H84.5398V22.104H78.4458V28H74.6618V13.326H78.4458V18.804H84.5398V13.326H88.3238V28ZM105.224 28H100.934L100.208 25.888H94.4224L93.6964 28H89.4064L94.9284 13.326H99.6804L105.224 28ZM99.1744 22.588L97.3044 17.066L95.4344 22.588H99.1744ZM110.092 28H106.308V13.326H117.066V16.626H110.092V18.914H116.912V22.214H110.092V28ZM122.897 28H119.113V13.326H129.871V16.626H122.897V18.914H129.717V22.214H122.897V28ZM144.634 26.13C143.152 27.5527 141.282 28.264 139.024 28.264C136.765 28.264 134.888 27.5527 133.392 26.13C131.91 24.7073 131.17 22.8887 131.17 20.674C131.17 18.4593 131.91 16.6407 133.392 15.218C134.888 13.7953 136.765 13.084 139.024 13.084C141.282 13.084 143.152 13.7953 144.634 15.218C146.115 16.6407 146.856 18.4593 146.856 20.674C146.856 22.8887 146.115 24.7073 144.634 26.13ZM139.024 24.92C140.212 24.92 141.172 24.5167 141.906 23.71C142.639 22.9033 143.006 21.8913 143.006 20.674C143.006 19.4567 142.639 18.4447 141.906 17.638C141.172 16.8313 140.212 16.428 139.024 16.428C137.821 16.428 136.853 16.8313 136.12 17.638C135.386 18.4447 135.02 19.4567 135.02 20.674C135.02 21.8913 135.386 22.9033 136.12 23.71C136.853 24.5167 137.821 24.92 139.024 24.92ZM152.545 28H148.761V13.326H159.519V16.626H152.545V18.914H159.365V22.214H152.545V28ZM174.983 28H171.199V22.082L165.633 13.326H169.901L173.091 18.738L176.237 13.326H180.527L174.983 22.082V28ZM193.446 26.13C191.965 27.5527 190.095 28.264 187.836 28.264C185.577 28.264 183.7 27.5527 182.204 26.13C180.723 24.7073 179.982 22.8887 179.982 20.674C179.982 18.4593 180.723 16.6407 182.204 15.218C183.7 13.7953 185.577 13.084 187.836 13.084C190.095 13.084 191.965 13.7953 193.446 15.218C194.927 16.6407 195.668 18.4593 195.668 20.674C195.668 22.8887 194.927 24.7073 193.446 26.13ZM187.836 24.92C189.024 24.92 189.985 24.5167 190.718 23.71C191.451 22.9033 191.818 21.8913 191.818 20.674C191.818 19.4567 191.451 18.4447 190.718 17.638C189.985 16.8313 189.024 16.428 187.836 16.428C186.633 16.428 185.665 16.8313 184.932 17.638C184.199 18.4447 183.832 19.4567 183.832 20.674C183.832 21.8913 184.199 22.9033 184.932 23.71C185.665 24.5167 186.633 24.92 187.836 24.92ZM201.187 15.658C201.187 17.4473 200.351 18.936 198.679 20.124L197.271 18.98C197.638 18.7893 198.012 18.4887 198.393 18.078C198.774 17.6673 199.024 17.264 199.141 16.868C198.994 16.9267 198.826 16.956 198.635 16.956C198.151 16.956 197.74 16.7873 197.403 16.45C197.08 16.1127 196.919 15.6727 196.919 15.13C196.919 14.5727 197.117 14.096 197.513 13.7C197.909 13.304 198.386 13.106 198.943 13.106C199.574 13.106 200.102 13.3407 200.527 13.81C200.967 14.2647 201.187 14.8807 201.187 15.658ZM212.926 28H203.246V13.326H207.03V24.7H212.926V28Z" fill="white"/>
<path d="M20.8267 32.3824C23.4249 33.5382 25.1529 34.3069 24.8723 35.8504C24.3758 38.581 12.114 41.2218 4.7885 42.4731C1.9618 41.1691 0 38.31 0 34.9927V8.23357C0 3.68629 3.6863 0 8.23358 0H38.7664C40.2458 0 41.634 0.390154 42.8338 1.07318C28.1765 4.15024 2.33288 12.4833 7.54744 21.4416C11.5011 28.2338 17.0724 30.7122 20.8267 32.3824Z" fill="white"/>
<path d="M23.6715 42.0255C35.5073 36.5365 31.3905 33.2774 21.2701 29.5036C33.1058 32.5912 36.5365 37.9088 23.6715 42.0255Z" fill="white"/>
<path d="M23.8651 23.7092C14.5801 19.5547 15.9524 15.9526 23.8652 11.6642C14.1603 15.5034 13.7448 21.053 23.8651 23.7092Z" fill="white"/>
<path d="M45.0771 2.94531C44.0483 3.37358 42.9509 3.82223 41.8114 4.28815C28.3942 9.77398 9.12427 17.6528 26.9303 22.8139C27.9883 23.1206 29.0409 23.4166 30.0789 23.7085C37.7143 25.8559 44.5635 27.7821 46.9997 32.0973V8.23364C46.9997 6.22036 46.2771 4.37585 45.0771 2.94531Z" fill="white"/>
</svg>
