<svg width="173" height="43" viewBox="0 0 173 43" fill="none" xmlns="http://www.w3.org/2000/svg">
<path d="M66.3738 27.2653C66.3738 27.0787 66.3451 26.9112 66.2877 26.7628C66.2351 26.6097 66.1346 26.4709 65.9862 26.3465C65.8379 26.2173 65.6297 26.0905 65.3618 25.9661C65.0938 25.8417 64.7469 25.7125 64.321 25.5785C63.8473 25.4254 63.3975 25.2531 62.9716 25.0617C62.5505 24.8703 62.1772 24.6478 61.8519 24.3942C61.5312 24.1358 61.2776 23.8367 61.091 23.497C60.9092 23.1572 60.8183 22.7625 60.8183 22.3126C60.8183 21.8772 60.914 21.4824 61.1054 21.1283C61.2968 20.7694 61.5647 20.4632 61.9093 20.2096C62.2538 19.9512 62.6605 19.7526 63.1295 19.6138C63.6032 19.4751 64.1224 19.4057 64.6871 19.4057C65.4575 19.4057 66.1298 19.5444 66.704 19.822C67.2782 20.0995 67.7232 20.4799 68.0391 20.9632C68.3597 21.4465 68.52 21.9992 68.52 22.6213H66.381C66.381 22.315 66.3164 22.0471 66.1872 21.8174C66.0628 21.5829 65.8714 21.3987 65.613 21.2647C65.3594 21.1307 65.0388 21.0637 64.6512 21.0637C64.2779 21.0637 63.9669 21.1211 63.7181 21.236C63.4692 21.346 63.2826 21.4968 63.1582 21.6882C63.0338 21.8748 62.9716 22.0854 62.9716 22.3198C62.9716 22.4969 63.0146 22.6572 63.1008 22.8007C63.1917 22.9443 63.3257 23.0783 63.5027 23.2027C63.6798 23.3271 63.8975 23.4443 64.1559 23.5544C64.4143 23.6645 64.7134 23.7721 65.0531 23.8774C65.6226 24.0497 66.1226 24.2435 66.5533 24.4588C66.9887 24.6741 67.3524 24.9158 67.6443 25.1837C67.9362 25.4517 68.1563 25.7556 68.3046 26.0953C68.453 26.4351 68.5271 26.8203 68.5271 27.2509C68.5271 27.7055 68.4386 28.1123 68.2616 28.4711C68.0845 28.83 67.8285 29.1339 67.4936 29.3827C67.1586 29.6315 66.759 29.8206 66.2949 29.9498C65.8307 30.079 65.3115 30.1436 64.7373 30.1436C64.2205 30.1436 63.7109 30.0766 63.2084 29.9426C62.706 29.8038 62.249 29.5957 61.8375 29.3181C61.4308 29.0406 61.1054 28.6865 60.8613 28.2558C60.6173 27.8251 60.4953 27.3155 60.4953 26.727H62.6558C62.6558 27.0523 62.706 27.3275 62.8065 27.5524C62.907 27.7773 63.0481 27.9591 63.23 28.0979C63.4166 28.2367 63.6367 28.3372 63.8903 28.3994C64.1487 28.4616 64.4311 28.4927 64.7373 28.4927C65.1105 28.4927 65.4168 28.44 65.6561 28.3348C65.9001 28.2295 66.0795 28.0835 66.1944 27.8969C66.314 27.7103 66.3738 27.4998 66.3738 27.2653ZM76.961 23.8056V25.4852H71.5059V23.8056H76.961ZM72.1447 19.5492V30H69.9914V19.5492H72.1447ZM78.497 19.5492V30H76.3509V19.5492H78.497ZM84.7488 21.3365L81.9064 30H79.6167L83.4999 19.5492H84.957L84.7488 21.3365ZM87.1103 30L84.2607 21.3365L84.0311 19.5492H85.5025L89.4072 30H87.1103ZM86.9811 26.1097V27.7964H81.4614V26.1097H86.9811ZM92.5295 19.5492V30H90.3762V19.5492H92.5295ZM96.6926 24.0138V25.6934H91.9409V24.0138H96.6926ZM97.195 19.5492V21.236H91.9409V19.5492H97.195ZM100.597 19.5492V30H98.4439V19.5492H100.597ZM104.76 24.0138V25.6934H100.009V24.0138H104.76ZM105.263 19.5492V21.236H100.009V19.5492H105.263ZM115.096 24.5306V25.0258C115.096 25.8202 114.989 26.5332 114.773 27.1648C114.558 27.7964 114.254 28.3348 113.862 28.7798C113.469 29.22 113 29.5574 112.455 29.7918C111.914 30.0263 111.314 30.1436 110.653 30.1436C109.998 30.1436 109.397 30.0263 108.852 29.7918C108.311 29.5574 107.842 29.22 107.445 28.7798C107.048 28.3348 106.739 27.7964 106.519 27.1648C106.304 26.5332 106.196 25.8202 106.196 25.0258V24.5306C106.196 23.7314 106.304 23.0185 106.519 22.3916C106.734 21.76 107.038 21.2216 107.43 20.7766C107.828 20.3316 108.297 19.9918 108.837 19.7574C109.383 19.5229 109.983 19.4057 110.639 19.4057C111.299 19.4057 111.9 19.5229 112.441 19.7574C112.986 19.9918 113.455 20.3316 113.847 20.7766C114.245 21.2216 114.551 21.76 114.766 22.3916C114.986 23.0185 115.096 23.7314 115.096 24.5306ZM112.921 25.0258V24.5162C112.921 23.9611 112.871 23.473 112.771 23.052C112.67 22.6309 112.522 22.2768 112.326 21.9896C112.129 21.7025 111.89 21.4872 111.608 21.3437C111.326 21.1953 111.003 21.1211 110.639 21.1211C110.275 21.1211 109.952 21.1953 109.67 21.3437C109.392 21.4872 109.156 21.7025 108.959 21.9896C108.768 22.2768 108.622 22.6309 108.521 23.052C108.421 23.473 108.371 23.9611 108.371 24.5162V25.0258C108.371 25.5761 108.421 26.0642 108.521 26.4901C108.622 26.9112 108.77 27.2677 108.966 27.5596C109.163 27.8467 109.402 28.0644 109.684 28.2127C109.967 28.3611 110.29 28.4353 110.653 28.4353C111.017 28.4353 111.34 28.3611 111.622 28.2127C111.905 28.0644 112.141 27.8467 112.333 27.5596C112.524 27.2677 112.67 26.9112 112.771 26.4901C112.871 26.0642 112.921 25.5761 112.921 25.0258ZM118.8 19.5492V30H116.647V19.5492H118.8ZM122.963 24.0138V25.6934H118.211V24.0138H122.963ZM123.466 19.5492V21.236H118.211V19.5492H123.466ZM126.15 19.5492L128.332 24.3152L130.514 19.5492H132.861L129.423 26.1958V30H127.241V26.1958L123.796 19.5492H126.15ZM138.898 19.5492H141.044V26.4542C141.044 27.2581 140.872 27.9352 140.527 28.4855C140.187 29.0358 139.716 29.4497 139.113 29.7272C138.515 30.0048 137.826 30.1436 137.046 30.1436C136.266 30.1436 135.572 30.0048 134.964 29.7272C134.361 29.4497 133.888 29.0358 133.543 28.4855C133.203 27.9352 133.033 27.2581 133.033 26.4542V19.5492H135.187V26.4542C135.187 26.9231 135.261 27.306 135.409 27.6026C135.558 27.8993 135.771 28.117 136.048 28.2558C136.33 28.3946 136.663 28.464 137.046 28.464C137.438 28.464 137.771 28.3946 138.043 28.2558C138.321 28.117 138.532 27.8993 138.675 27.6026C138.823 27.306 138.898 26.9231 138.898 26.4542V19.5492ZM149.535 28.3204V30H144.274V28.3204H149.535ZM144.97 19.5492V30H142.817V19.5492H144.97ZM150.741 29.0023C150.741 28.696 150.846 28.44 151.057 28.2343C151.272 28.0285 151.557 27.9256 151.911 27.9256C152.265 27.9256 152.547 28.0285 152.758 28.2343C152.973 28.44 153.081 28.696 153.081 29.0023C153.081 29.3085 152.973 29.5646 152.758 29.7703C152.547 29.9761 152.265 30.079 151.911 30.079C151.557 30.079 151.272 29.9761 151.057 29.7703C150.846 29.5646 150.741 29.3085 150.741 29.0023ZM160.804 19.5492H162.95V26.4542C162.95 27.2581 162.778 27.9352 162.433 28.4855C162.094 29.0358 161.622 29.4497 161.019 29.7272C160.421 30.0048 159.732 30.1436 158.952 30.1436C158.172 30.1436 157.478 30.0048 156.871 29.7272C156.268 29.4497 155.794 29.0358 155.449 28.4855C155.11 27.9352 154.94 27.2581 154.94 26.4542V19.5492H157.093V26.4542C157.093 26.9231 157.167 27.306 157.316 27.6026C157.464 27.8993 157.677 28.117 157.955 28.2558C158.237 28.3946 158.569 28.464 158.952 28.464C159.345 28.464 159.677 28.3946 159.95 28.2558C160.227 28.117 160.438 27.8993 160.582 27.6026C160.73 27.306 160.804 26.9231 160.804 26.4542V19.5492ZM172.281 28.3204V30H164.874V28.3204H172.281ZM172.174 20.7479L165.829 30H164.314V28.7654L170.709 19.5492H172.174V20.7479ZM171.434 19.5492V21.236H164.321V19.5492H171.434Z" fill="white"/>
<path d="M20.8267 32.3824C23.4249 33.5382 25.1529 34.3069 24.8723 35.8504C24.3758 38.581 12.114 41.2218 4.7885 42.4731C1.9618 41.1691 0 38.31 0 34.9927V8.23357C0 3.68629 3.6863 0 8.23358 0H38.7664C40.2458 0 41.634 0.390154 42.8338 1.07318C28.1765 4.15024 2.33288 12.4833 7.54744 21.4416C11.5011 28.2338 17.0724 30.7122 20.8267 32.3824Z" fill="white"/>
<path d="M23.6715 42.0255C35.5073 36.5365 31.3905 33.2774 21.2701 29.5036C33.1058 32.5912 36.5365 37.9088 23.6715 42.0255Z" fill="white"/>
<path d="M23.8651 23.7092C14.5801 19.5547 15.9524 15.9526 23.8652 11.6642C14.1603 15.5034 13.7448 21.053 23.8651 23.7092Z" fill="white"/>
<path d="M45.0771 2.94531C44.0483 3.37358 42.9509 3.82223 41.8114 4.28815C28.3942 9.77398 9.12427 17.6528 26.9303 22.8139C27.9883 23.1206 29.0409 23.4166 30.0789 23.7085C37.7143 25.8559 44.5635 27.7821 46.9997 32.0973V8.23364C46.9997 6.22036 46.2771 4.37585 45.0771 2.94531Z" fill="white"/>
</svg>
