<svg width="32" height="32" viewBox="0 0 32 32" fill="none" xmlns="http://www.w3.org/2000/svg">
<path d="M25.552 26.0627C23.364 22.7293 20.66 21.6827 17.3333 21.4173V23.3333C17.3333 24.0453 17.056 24.7147 16.552 25.2187C15.544 26.2267 13.7827 26.22 12.788 25.2253L4.39733 16.9493C4.27135 16.8253 4.1713 16.6774 4.10301 16.5143C4.03473 16.3512 3.99956 16.1761 3.99956 15.9993C3.99956 15.8225 4.03473 15.6475 4.10301 15.4844C4.1713 15.3213 4.27135 15.1734 4.39733 15.0493L12.7813 6.77867C13.7867 5.772 15.5453 5.77067 16.5533 6.78C17.056 7.284 17.3333 7.95333 17.3333 8.66533V10.9373C23.492 12.1813 28 17.6 28 23.9987V25.332C28.0008 25.6194 27.9085 25.8993 27.7371 26.13C27.5657 26.3606 27.3243 26.5297 27.049 26.6119C26.7736 26.6941 26.479 26.685 26.2092 26.586C25.9394 26.487 25.7089 26.3034 25.552 26.0627V26.0627ZM16.0307 18.6813C18.9733 18.756 22.2147 19.2067 25.0413 21.5093C24.5311 19.3759 23.3744 17.4521 21.7293 16.0011C20.0843 14.55 18.0311 13.6425 15.8507 13.4027C15.1787 13.328 14.6667 13.3333 14.6667 13.3333V8.67067L7.23199 15.9987L14.6667 23.332V18.6667L16.0307 18.6813V18.6813Z" fill="#5A4C4C"/>
</svg>
