<svg width="28" height="28" viewBox="0 0 28 28" fill="none" xmlns="http://www.w3.org/2000/svg">
<path d="M19.7693 9.70712C20.1598 9.3166 20.1598 8.68343 19.7693 8.29291C19.3787 7.90238 18.7456 7.90238 18.355 8.29291L19.7693 9.70712ZM8.2307 18.4173C7.84017 18.8078 7.84017 19.4409 8.2307 19.8315C8.62122 20.222 9.25439 20.222 9.64491 19.8315L8.2307 18.4173ZM18.355 19.8315C18.7456 20.222 19.3787 20.222 19.7693 19.8315C20.1598 19.4409 20.1598 18.8078 19.7693 18.4172L18.355 19.8315ZM9.64491 8.29289C9.25439 7.90237 8.62122 7.90237 8.2307 8.29289C7.84017 8.68342 7.84017 9.31658 8.2307 9.70711L9.64491 8.29289ZM18.355 8.29291L8.2307 18.4173L9.64491 19.8315L19.7693 9.70712L18.355 8.29291ZM19.7693 18.4172L9.64491 8.29289L8.2307 9.70711L18.355 19.8315L19.7693 18.4172ZM26 14C26 20.6274 20.6274 26 14 26V28C21.732 28 28 21.732 28 14H26ZM14 26C7.37258 26 2 20.6274 2 14H0C0 21.732 6.26801 28 14 28V26ZM2 14C2 7.37258 7.37258 2 14 2V0C6.26801 0 0 6.26801 0 14H2ZM14 2C20.6274 2 26 7.37258 26 14H28C28 6.26801 21.732 0 14 0V2Z" fill="black"/>
</svg>
