<svg width="43" height="43" viewBox="0 0 43 43" fill="none" xmlns="http://www.w3.org/2000/svg">
<g clip-path="url(#clip0_928_802)">
<path d="M37.0711 11.7746V40.2285C37.0711 41.757 35.8281 43 34.2996 43H8.70117C7.17266 43 5.92969 41.757 5.92969 40.2285V2.77148C5.92969 1.24297 7.17266 0 8.70117 0H25.2965L37.0711 11.7746Z" fill="#518FF5"/>
<path d="M13.5381 21.5923H29.4615V23.3644H13.5381V21.5923Z" fill="white"/>
<path d="M13.5381 25.5396H29.4615V27.3116H13.5381V25.5396Z" fill="white"/>
<path d="M13.5381 29.4951H29.4615V31.2672H13.5381V29.4951Z" fill="white"/>
<path d="M13.5381 33.4424H24.8676V35.2145H13.5381V33.4424Z" fill="white"/>
<path opacity="0.19" d="M26.9004 11.3295L37.0709 19.5684V11.825L31.3096 8.48242L26.9004 11.3295Z" fill="black"/>
<path d="M37.0705 11.7746H28.0674C26.5389 11.7746 25.2959 10.5316 25.2959 9.00313V0L37.0705 11.7746Z" fill="#A6C5FA"/>
</g>
<defs>
<clipPath id="clip0_928_802">
<rect width="43" height="43" fill="white"/>
</clipPath>
</defs>
</svg>
