<svg width="43" height="43" viewBox="0 0 43 43" fill="none" xmlns="http://www.w3.org/2000/svg">
<g clip-path="url(#clip0_928_714)">
<path d="M5.3252 2.58001C5.3252 1.15495 6.46937 0 7.88113 0H26.6246L37.2743 9.02998V40.42C37.2743 41.8451 36.1302 43 34.7184 43H7.88113C6.46937 43 5.3252 41.8451 5.3252 40.42V2.58001Z" fill="#D22600"/>
<path opacity="0.19" d="M27.3848 7.95783L37.2738 15.8419V9.05244L32.3293 4.90332L27.3848 7.95783Z" fill="black"/>
<path d="M13.3397 27.2639H12.3413V30.3552H10.1309V21.041H13.0469C15.5635 21.041 17.0012 22.0354 17.0012 24.0785C17.0006 26.2702 15.523 27.2639 13.3397 27.2639ZM13.0735 22.6266H12.3414V25.6507H13.1535C14.1519 25.6507 14.7243 25.1663 14.7243 24.0779C14.7243 23.0976 14.1785 22.6266 13.0735 22.6266Z" fill="white"/>
<path d="M20.4877 30.3552H17.9844V21.041H20.328C22.6989 21.041 24.9612 21.807 24.9612 25.6521C24.9613 29.4401 22.7907 30.3552 20.4877 30.3552ZM20.6468 22.6535H20.1942V28.7427H20.6468C21.8583 28.7427 22.6702 28.0842 22.6702 25.6507C22.6716 23.1655 21.8057 22.6535 20.6468 22.6535Z" fill="white"/>
<path d="M28.8088 22.6266V25.0736H32.031V26.6726H28.8088V30.3552H26.585V21.041H32.67L32.4436 22.6266H28.8088Z" fill="white"/>
<path d="M26.624 0V6.44997C26.624 7.87503 27.7682 9.02998 29.18 9.02998H37.2738" fill="#FFA7A7"/>
</g>
<defs>
<clipPath id="clip0_928_714">
<rect width="42.5988" height="43" fill="white"/>
</clipPath>
</defs>
</svg>
