<svg width="51" height="67" viewBox="0 0 51 67" fill="none" xmlns="http://www.w3.org/2000/svg">
<g filter="url(#filter0_d_609_6089)">
<path d="M15.4562 20.1804C13.7966 25.5537 16.8071 31.2551 22.1804 32.9148C23.2198 33.2358 24.3041 33.3817 25.3365 33.3699C25.3365 33.3699 25.8768 34.4561 25.8251 37.5042C25.7735 40.5523 23.7601 46.1916 23.7601 46.1916C23.7601 46.1916 26.136 44.2611 30.2427 37.0036C34.3494 29.7461 34.9148 26.1906 34.9148 26.1906C36.5744 20.8173 33.5639 15.1159 28.1906 13.4562C22.8173 11.7966 17.1159 14.8071 15.4562 20.1804Z" fill="#E8C512"/>
<path d="M23.0408 45.9348L23.0408 45.9349L22.1229 48.5059L24.2417 46.7844L23.7601 46.1916C24.2417 46.7844 24.242 46.7841 24.2423 46.7839L24.2429 46.7833L24.2444 46.7821L24.248 46.7792L24.2577 46.7711C24.2653 46.7647 24.2751 46.7564 24.2872 46.7459C24.3114 46.725 24.3446 46.6957 24.3865 46.6573C24.4703 46.5803 24.5894 46.4666 24.7424 46.3096C25.0484 45.9957 25.4905 45.5083 26.0587 44.7951C27.1949 43.369 28.8376 41.0376 30.9074 37.3797C32.9797 33.7176 34.166 30.9761 34.8363 29.1371C35.1715 28.2176 35.3776 27.5237 35.501 27.0533C35.5627 26.8181 35.6037 26.6388 35.6297 26.5151C35.6428 26.4532 35.6521 26.4053 35.6584 26.3712L35.6587 26.3696C37.4113 20.6069 34.1769 14.5059 28.416 12.7265C22.6397 10.9424 16.5107 14.1787 14.7265 19.955C12.9424 25.7313 16.1787 31.8603 21.955 33.6445C22.885 33.9317 23.8461 34.0882 24.7807 34.1255C24.8031 34.2153 24.827 34.3204 24.8509 34.4417C24.9677 35.0344 25.0866 36.0135 25.0615 37.4913C25.0376 38.9044 24.549 40.9894 24.0387 42.7818C23.7873 43.6649 23.5373 44.4549 23.35 45.0242C23.2565 45.3087 23.1787 45.5375 23.1246 45.6947C23.0975 45.7733 23.0764 45.8339 23.0621 45.8746L23.0459 45.9205L23.042 45.9317L23.041 45.9343L23.0408 45.9348L23.0408 45.9348Z" stroke="white" stroke-width="1.52742"/>
</g>
<circle cx="25.1831" cy="22.6734" r="3.56398" fill="white"/>
<defs>
<filter id="filter0_d_609_6089" x="0.234542" y="0.2711" width="49.902" height="65.8233" filterUnits="userSpaceOnUse" color-interpolation-filters="sRGB">
<feFlood flood-opacity="0" result="BackgroundImageFix"/>
<feColorMatrix in="SourceAlpha" type="matrix" values="0 0 0 0 0 0 0 0 0 0 0 0 0 0 0 0 0 0 127 0" result="hardAlpha"/>
<feOffset dy="2.03656"/>
<feGaussianBlur stdDeviation="6.61881"/>
<feComposite in2="hardAlpha" operator="out"/>
<feColorMatrix type="matrix" values="0 0 0 0 0 0 0 0 0 0 0 0 0 0 0 0 0 0 0.25 0"/>
<feBlend mode="normal" in2="BackgroundImageFix" result="effect1_dropShadow_609_6089"/>
<feBlend mode="normal" in="SourceGraphic" in2="effect1_dropShadow_609_6089" result="shape"/>
</filter>
</defs>
</svg>
