<svg width="43" height="43" viewBox="0 0 43 43" fill="none" xmlns="http://www.w3.org/2000/svg">
<path d="M37.0371 11.7997V40.1864C37.0371 41.7149 35.8025 42.9495 34.274 42.9495H8.72598C7.19746 42.9495 5.96289 41.7149 5.96289 40.1864V2.81338C5.96289 1.28486 7.19746 0.050293 8.72598 0.050293H25.2877L37.0371 11.7997Z" fill="#23A566"/>
<path d="M28.2947 21.4077H14.7061C14.2189 21.4077 13.8242 21.8024 13.8242 22.2896V34.1229C13.8242 34.6101 14.2189 35.0048 14.7061 35.0048H28.3031C28.7902 35.0048 29.185 34.6101 29.185 34.1229V22.2979C29.1766 21.8108 28.7818 21.4077 28.2947 21.4077ZM15.5879 27.0851H20.6186V29.3274H15.5879V27.0851ZM22.3822 27.0851H27.4129V29.3274H22.3822V27.0851ZM27.4129 25.3214H22.3822V23.1798H27.4129V25.3214ZM20.6186 23.1798V25.3214H15.5879V23.1798H20.6186ZM15.5879 31.0995H20.6186V33.2411H15.5879V31.0995ZM22.3822 33.2411V31.0995H27.4129V33.2411H22.3822Z" fill="white"/>
<path opacity="0.19" d="M26.8662 11.3715L37.0367 19.6104V11.8754L31.267 8.52441L26.8662 11.3715Z" fill="black"/>
<path d="M37.0375 11.7997H28.0512C26.5227 11.7997 25.2881 10.5651 25.2881 9.03662V0.050293L37.0375 11.7997Z" fill="#8ED1B1"/>
</svg>
