<svg width="32" height="32" viewBox="0 0 32 32" fill="none" xmlns="http://www.w3.org/2000/svg">
<path d="M12 14.6667H14.6667H12ZM17.3333 14.6667H14.6667H17.3333ZM14.6667 14.6667V12V14.6667ZM14.6667 14.6667V17.3333V14.6667ZM21.3333 21.3333L26.6667 26.6667L21.3333 21.3333ZM5.33333 14.6667C5.33333 15.8923 5.57475 17.106 6.04379 18.2384C6.51283 19.3708 7.20032 20.3996 8.067 21.2663C8.93368 22.133 9.96258 22.8205 11.095 23.2895C12.2273 23.7586 13.441 24 14.6667 24C15.8923 24 17.106 23.7586 18.2384 23.2895C19.3708 22.8205 20.3996 22.133 21.2663 21.2663C22.133 20.3996 22.8205 19.3708 23.2895 18.2384C23.7586 17.106 24 15.8923 24 14.6667C24 12.1913 23.0167 9.81734 21.2663 8.067C19.516 6.31666 17.142 5.33333 14.6667 5.33333C12.1913 5.33333 9.81734 6.31666 8.067 8.067C6.31666 9.81734 5.33333 12.1913 5.33333 14.6667V14.6667Z" stroke="#5A4C4C" stroke-width="2" stroke-linecap="round" stroke-linejoin="round"/>
</svg>
